<mxfile host="app.diagrams.net" modified="2024-02-19T14:38:29.834Z" agent="Mozilla/5.0 (Windows NT 10.0; Win64; x64) AppleWebKit/537.36 (KHTML, like Gecko) Chrome/121.0.0.0 Safari/537.36 Edg/121.0.0.0" etag="QXfLVfgFi8-RuZ-7DMla" version="23.1.2" type="github">
  <diagram id="prtHgNgQTEPvFCAcTncT" name="Page-1">
    <mxGraphModel dx="4507" dy="1145" grid="1" gridSize="10" guides="1" tooltips="1" connect="1" arrows="1" fold="1" page="1" pageScale="1" pageWidth="827" pageHeight="1169" math="0" shadow="0">
      <root>
        <mxCell id="0" />
        <mxCell id="1" parent="0" />
        <mxCell id="p_PE6rgmmZaMKhKjFqQm-24" style="edgeStyle=orthogonalEdgeStyle;rounded=0;orthogonalLoop=1;jettySize=auto;html=1;entryX=1;entryY=0.5;entryDx=0;entryDy=0;" edge="1" parent="1" source="dNxyNK7c78bLwvsdeMH5-16" target="p_PE6rgmmZaMKhKjFqQm-23">
          <mxGeometry relative="1" as="geometry" />
        </mxCell>
        <UserObject label="John Watson&lt;br&gt;&lt;i style=&quot;color: gray&quot;&gt;Lead Developer&lt;/i&gt;" name="John Watson" position="Lead Developer" placeholders="1" id="dNxyNK7c78bLwvsdeMH5-16">
          <mxCell style="label;image=https://cdn3.iconfinder.com/data/icons/user-avatars-1/512/users-9-2-128.png;whiteSpace=wrap;html=1;rounded=0;glass=0;treeFolding=1;treeMoving=1;" parent="1" vertex="1">
            <mxGeometry x="-2065" y="80" width="180" height="80" as="geometry" />
          </mxCell>
        </UserObject>
        <UserObject label="%name%&lt;br&gt;&lt;i style=&quot;color: gray&quot;&gt;%position%&lt;/i&gt;" name="Simon Dunn" position="Senior Developer" placeholders="1" id="p_PE6rgmmZaMKhKjFqQm-3">
          <mxCell style="label;image=https://cdn3.iconfinder.com/data/icons/user-avatars-1/512/users-9-2-128.png;whiteSpace=wrap;html=1;rounded=0;glass=0;treeFolding=1;treeMoving=1;" vertex="1" parent="1">
            <mxGeometry x="-2325" y="210" width="180" height="80" as="geometry" />
          </mxCell>
        </UserObject>
        <UserObject label="%name%&lt;br&gt;&lt;font color=&quot;#808080&quot;&gt;&lt;i&gt;Senior Developer&lt;/i&gt;&lt;/font&gt;" name="Fay Toward" position="Senior Developer" placeholders="1" id="p_PE6rgmmZaMKhKjFqQm-7">
          <mxCell style="label;image=https://cdn3.iconfinder.com/data/icons/user-avatars-1/512/users-3-128.png;whiteSpace=wrap;html=1;rounded=0;glass=0;treeMoving=1;treeFolding=1;" vertex="1" parent="1">
            <mxGeometry x="-2065" y="210" width="180" height="80" as="geometry" />
          </mxCell>
        </UserObject>
        <UserObject label="Rana Salem&lt;br&gt;&lt;font color=&quot;#808080&quot;&gt;&lt;i&gt;Junior Developer&lt;/i&gt;&lt;/font&gt;" name="Fay Toward" position="Senior Developer" placeholders="1" id="p_PE6rgmmZaMKhKjFqQm-8">
          <mxCell style="label;image=https://cdn3.iconfinder.com/data/icons/user-avatars-1/512/users-3-128.png;whiteSpace=wrap;html=1;rounded=0;glass=0;treeMoving=1;treeFolding=1;" vertex="1" parent="1">
            <mxGeometry x="-2325" y="340" width="180" height="80" as="geometry" />
          </mxCell>
        </UserObject>
        <UserObject label="Siddharth Godhania&lt;br&gt;&lt;i style=&quot;color: gray&quot;&gt;Developer&lt;br&gt;(Incoming - TBC)&lt;br&gt;&lt;/i&gt;" name="John Watson" position="Lead Developer" placeholders="1" id="p_PE6rgmmZaMKhKjFqQm-9">
          <mxCell style="label;image=https://cdn3.iconfinder.com/data/icons/user-avatars-1/512/users-9-2-128.png;whiteSpace=wrap;html=1;rounded=0;glass=0;treeFolding=1;treeMoving=1;" vertex="1" parent="1">
            <mxGeometry x="-2065" y="340" width="180" height="80" as="geometry" />
          </mxCell>
        </UserObject>
        <mxCell id="p_PE6rgmmZaMKhKjFqQm-10" value="Squad 2 - Preferences" style="swimlane;html=1;startSize=20;horizontal=1;containerType=tree;glass=0;" vertex="1" parent="1">
          <mxGeometry x="-2105" y="40" width="250" height="400" as="geometry" />
        </mxCell>
        <mxCell id="p_PE6rgmmZaMKhKjFqQm-16" value="Squad 1 - Messages" style="swimlane;html=1;startSize=20;horizontal=1;containerType=tree;glass=0;" vertex="1" parent="1">
          <mxGeometry x="-2360" y="40" width="250" height="400" as="geometry" />
        </mxCell>
        <mxCell id="p_PE6rgmmZaMKhKjFqQm-23" value="" style="ellipse;whiteSpace=wrap;html=1;aspect=fixed;" vertex="1" parent="p_PE6rgmmZaMKhKjFqQm-16">
          <mxGeometry x="115" y="60" width="40" height="40" as="geometry" />
        </mxCell>
      </root>
    </mxGraphModel>
  </diagram>
</mxfile>
